<?xml version="1.0" encoding="UTF-8"?>
<svg id="Layer_1" xmlns="http://www.w3.org/2000/svg" version="1.1" viewBox="350 175 730 730">
  <!-- Generator: Adobe Illustrator 30.4.0, SVG Export Plug-In . SVG Version: 2.1.4 Build 226)  -->
  <defs>
    <style>
      .st0 {
        fill: #f5a623;
        stroke: #f5a623;
        stroke-width: 12;
        stroke-linejoin: round;
      }
    </style>
  </defs>
  <path class="st0" d="M1040.96,587.98c-.63-1.3-1.25-2.6-1.86-3.9-10.4-22.2-23.4-43.01-38.85-62.02-1.42-1.68-2.84-3.37-4.25-5.06-5.44-6.83-11.04-13.28-17.22-19.45-1.43-1.41-2.85-2.82-4.27-4.23-4.53-4.53-9.08-9.02-13.91-13.23-2.04-1.75-4.04-3.5-6-5.32-18.11-16.93-39.86-31.36-61.97-42.45-2.41-1.2-4.81-2.42-7.19-3.69-.89-.48-1.76-.95-2.62-1.42-1.71-.92-3.42-1.85-5.12-2.77-4.07-2.24-7.66-4.21-12.23-5.21-.84-.08-1.65-.15-2.46-.22.76-3.89,1.13-7.64,1.16-11.61,0-.7,0-1.38,0-2.06,0-1.48.01-2.97.02-4.45,0-2.31,0-4.62.02-6.92.06-7.76.15-15.36-1.67-22.96-.18-.68-.36-1.33-.53-1.99-5.86-24.51-19.82-46.24-38.5-62.88-1.93-1.66-3.71-3.3-5.5-5.12-1.21-2.58-1.11-3.58-.36-6.33.36-.84.7-1.66,1.05-2.48,3.8-9.23,9.42-18.13,15.31-26.19,12.96-15.31,32.22-28.69,52.44-31.47,8.22-1.04,14.79-1.86,20.88-7.78,3.5-5.71,5.42-10.96,4.69-17.75-1.42-6.57-4.5-10.26-10-14q-8.13-4.83-31,0c-34.04,9.24-64.04,33.87-81.75,64.17-.4.71-.8,1.39-1.19,2.08-2.8,4.87-4.85,9.69-6.55,15.05-.17.58-.34,1.14-.51,1.7-26.72-9.17-54.72-14.94-83-10q-1.03,1.23-3.2,1.29-10.28,1.13-30.08,8.1c-.59.21-1.15.41-1.72.61q0-3-.78-4.88c-.37-.72-.73-1.42-1.1-2.11-.42-.8-.82-1.59-1.23-2.37-.46-.86-.9-1.69-1.34-2.52-14.08-26.47-34.85-47.58-61.75-61.24-15.1-7.49-36.19-16.78-53.34-11.04-4.93,2.71-8.65,6.81-10.47,12.15-.69,6.82-1.05,13.14,3.06,18.88,4.35,4.99,9.06,8.21,15.75,8.75,19.46,1.18,39.15,12.21,52.33,26.26.63.72,1.25,1.42,1.86,2.11,9.22,10.39,19.53,23.68,21,38-9.14,6.59-16.58,15.63-23.67,24.32-20.47,25.86-27.39,58.58-23.82,90.91.17,1.28.33,2.53.49,3.77q-2.26,0-8.83,3.1c-.95.46-1.87.9-2.8,1.34-8.65,4.14-17.11,8.51-25.37,13.38-.68.4-1.34.79-2.01,1.19-14.9,8.71-29.16,18.2-42.44,29.25-2.71,2.32-5.41,4.63-8.21,6.84-9.83,7.74-18.88,16.65-27.1,26.1-1.82,2.17-3.67,4.26-5.61,6.32-19.72,20.91-36.2,45.13-49.24,70.71-.47.94-.94,1.86-1.4,2.78-8.25,16.36-14.71,33.15-20.01,50.67-.34,1.13-.67,2.23-.99,3.33-3.79,12.29-4.36,24.35-4.48,37.14,0,.89-.01,1.75-.02,2.61-.18,13.62.62,26.25,6.03,38.97q.74,1.66,1.47,3.28c5.74,12.89,12.76,24.59,23.13,34.34.64.56,1.25,1.11,1.87,1.66,5.99,5.44,12.26,10.03,19.19,14.19,36.39,21.17,83.74,21.35,123.49,10.94,2.01-.53,4.03-1.07,6.04-1.59,7.25-1.88,14.47-3.83,21.64-6.02.56-.17,1.1-.34,1.65-.51,5.84,15.33,14.49,30.17,24.09,43.44.65.87,1.28,1.72,1.91,2.56,10.08,13.81,21.87,26.9,35.56,37.25.83.6,1.64,1.18,2.44,1.75,7.33,5.37,14.76,10.27,22.85,14.45,1.07.53,2.11,1.04,3.15,1.55,18.84,9.38,39.31,11.79,60.08,9.64,36.62-5.94,66.8-28.85,89.62-57.02.44-.55.87-1.08,1.3-1.62,11.96-14.65,22.95-31.46,29-49.5.34-1.19.67-2.34,1-3.5,35.02,13.51,78.29,20.94,115.52,12.49.86-.21,1.7-.41,2.54-.62,10-2.42,19.59-5.56,28.94-9.88,25.9-12.99,44.31-34.84,54-62,12.99-38.79-.04-84.69-17.04-120.02ZM641.93,340.67c11.86-12.51,27.15-23.55,44.07-27.67,1.03-.35,2.06-.7,3.12-1.06,20.33-6.63,46.67-7.02,66.88.06,1.35.44,2.71.88,4.06,1.32,25.02,8.46,44.23,26.37,56.45,49.53,6.43,13.32,6.88,25.63,6.5,40.15-5.15-.43-10-1.15-14.97-2.56-10.88-3.07-21.94-4.87-33.09-6.63-.79-.13-1.59-.25-2.4-.38-16.18-2.56-32.43-4.83-48.85-4.74q-1.76,0-3.55.01c-32.52.42-64.47,6.36-95.8,14.73q-2.34.56-4.34.56c-.93-23.92,5.62-45.3,21.93-63.33ZM786.26,537.95c-9.6,26.21-25.34,49.8-43.26,71.05-.9,1.08-1.79,2.17-2.69,3.25-5.47,6.58-11.11,12.83-17.31,18.75-4.38-2-7.21-4.87-10.56-8.25-.62-.62-1.24-1.24-1.87-1.88-5.58-5.71-10.5-11.8-15.28-18.18-1.24-1.64-2.51-3.25-3.79-4.86-16.44-20.68-28.97-43.78-37.71-68.7-.55-1.52-1.15-3.03-1.77-4.53-3.67-9.51-4.56-19.24-4.5-29.35,0-1.22.01-2.44.02-3.7.33-16.65,4.64-30.47,16.3-42.8,12.02-11.31,25.41-16.26,41.19-19.75.79-.18,1.59-.35,2.4-.53,14.32-2.57,29.85-.96,43.6,3.53.65.2,1.3.41,1.96.62,16.1,5.21,28.85,15.28,36.85,30.38,11.52,24.79,5.18,50.39-3.55,74.95ZM577,728c-1.63.68-3.25,1.36-4.88,2.06-13.75,5.52-28.59,8.32-43.12,10.94-.92.18-1.84.35-2.79.54-3.64.53-7.22.64-10.89.67-.73,0-1.46.01-2.21.02-1.54,0-3.09.02-4.63.02-2.31,0-4.61.04-6.92.07-21.24.15-42.8-4.75-58.91-19.61-13.87-14.39-20.35-31.61-20.11-51.46.73-21.26,6.43-43.18,16.35-62.01,1.1-2.21,1.97-4.41,2.8-6.73,8.43-21.49,23.07-41.52,37.31-59.5.42-.54.85-1.08,1.29-1.64,7.13-9.01,15.25-17.1,23.34-25.23.54-.54,1.07-1.08,1.62-1.64,6.59-6.64,13.28-12.83,20.75-18.49.6-.47,1.21-.94,1.83-1.42,23.84-18.39,50-33.02,78.17-43.58.87-.4,1.73-.79,2.62-1.2,2.69-.9,3.73-.58,6.38.2-.41,1.15-.82,2.3-1.24,3.48-11.72,33.45-7.56,68.85,6.41,101.23.76,1.53,1.56,3.04,2.38,4.54,1.2,2.27,2.29,4.53,3.34,6.86,14.46,31.82,36.9,67.56,63.98,90.47.37.47.74.93,1.12,1.41-.29,2.39-.67,3.66-2.36,5.4-.58.42-1.15.84-1.75,1.27-.65.48-1.29.95-1.96,1.45q-1.05.75-2.12,1.52c-.73.53-1.45,1.06-2.2,1.6-1.49,1.09-2.99,2.17-4.48,3.24-1.88,1.35-3.74,2.71-5.6,4.08-28.54,20.88-60.04,39.83-93.53,51.45ZM748,835c-16.61,6.58-33.98,7.41-50.75.88-10.32-4.55-19.43-9.83-28-17.12-.6-.51-1.19-1.01-1.81-1.54-2.82-2.49-5.11-4.64-6.44-8.21,18.5-11.66,36.3-18.92,58.31-20.19,23.78-.79,43.74,8.15,63.69,20.19-5.31,12.47-23.15,21.04-35,26ZM813.44,769.5c-.52.92-1.04,1.84-1.58,2.78-1.28,2.25-2.56,4.49-3.86,6.72-3.24-1.26-5.93-2.52-8.75-4.56-28.58-19.28-64.99-28.24-99.19-22.25-2.7.54-5.38,1.17-8.06,1.81-.69.15-1.38.3-2.09.46-17.9,3.93-35.05,11.93-49.68,22.96q-2.23,1.58-4.23,1.58c-4.11-5.41-6.98-11.81-9.88-17.94-.31-.65-.62-1.3-.94-1.97-1.33-2.88-2.18-4.88-2.18-8.09.64-.32,1.27-.64,1.93-.97,28.21-14.26,55.05-30.65,80.07-50.03,1.18-.9,2.36-1.8,3.54-2.7,1.2-.91,2.39-1.83,3.59-2.74.56-.43,1.12-.85,1.69-1.29,2.18-1.68,4.24-3.33,6.19-5.27,3.6.33,5.92,2.19,8.75,4.31.98.73,1.96,1.46,2.97,2.21,2.25,1.69,4.48,3.4,6.71,5.12,25.58,19.57,53.16,36.26,81.57,51.36-.33,7.3-2.93,12.25-6.56,18.5ZM1017.48,697.55c-8.19,19.05-20.49,30.83-39.55,38.7-9.58,3.68-19.28,5.88-29.54,5.95-.72,0-1.44.01-2.18.02-2.32.02-4.64.02-6.96.03q-1.18,0-2.39,0c-11.58-.01-22.56-.53-33.86-3.25-1.25-.27-2.49-.53-3.78-.81-16.42-3.75-32.91-9.2-48.22-16.19q-1.62-.71-3.27-1.44c-25.32-11.41-49.45-26.01-71.73-42.56-1.89-1.38-3.79-2.75-5.69-4.12-.87-.64-1.74-1.27-2.63-1.93-1.91-1.38-3.83-2.74-5.77-4.08q-1.5-1.05-3.04-2.12-1.37-.94-2.76-1.89-2.12-1.86-3.1-3.9-.02-1.96,1.1-3.49.87-.76,1.76-1.53c3.97-3.7,7.29-7.72,10.69-11.94,2.07-2.54,4.18-5.02,6.33-7.49,24.52-28.34,48.03-65.38,56.49-102.17q.61-2.34,1.61-3.34.22-1.58.44-3.19c.52-3.51,1.4-6.47,2.56-9.81,1.08-4.29,1.19-8.52,1.24-12.91,0-.76.02-1.53.03-2.31.02-2.47.04-4.93.05-7.4q0-1.25,0-2.53c.02-12.39-.71-23.91-4.32-35.84-.38-1.32-.76-2.65-1.13-3.98-.29-1-.57-2-.87-3.02,32.01,4.47,66.4,28.95,91,49q.76.61,1.54,1.24c8.41,6.76,16.12,14.22,23.77,21.83.92.91,1.84,1.82,2.78,2.76,6.06,6.09,11.58,12.44,16.9,19.18.48.59.95,1.18,1.45,1.79,10.84,13.47,20.34,28,28.55,43.21.47.86.94,1.72,1.42,2.6,5.74,10.52,11.22,20.77,14.64,32.28.83,2.77,1.83,5.3,3,7.94,8.11,19.62,11.08,46.75,3.42,66.74Z"/>
</svg>